<svg width="61" height="43" viewBox="0 0 61 43" fill="none" xmlns="http://www.w3.org/2000/svg">
<rect width="61" height="43" fill="white"/>
<path d="M16 19.5C16 21.9853 13.9853 24 11.5 24C9.01472 24 7 21.9853 7 19.5C7 17.0147 9.01472 15 11.5 15C13.9853 15 16 17.0147 16 19.5Z" fill="#504D64"/>
<path d="M16 32.5C16 34.9853 13.9853 37 11.5 37C9.01472 37 7 34.9853 7 32.5C7 30.0147 9.01472 28 11.5 28C13.9853 28 16 30.0147 16 32.5Z" fill="#504D64"/>
<path d="M35.4275 7L41.3638 10.7094L24.9363 36.9989L19 33.2895L35.4275 7Z" fill="#504D64"/>
<path d="M48.4275 7L54.3638 10.7094L37.9363 36.9989L32 33.2895L48.4275 7Z" fill="#504D64"/>
</svg>
